<?xml version="1.0" encoding="UTF-8" standalone="no"?>
<svg
   width="24"
   height="24"
   viewBox="0 0 24 24"
   fill="none"
   version="1.1"
   id="svg4"
   sodipodi:docname="moon.svg"
   inkscape:version="1.1.1 (3bf5ae0d25, 2021-09-20)"
   xmlns:inkscape="http://www.inkscape.org/namespaces/inkscape"
   xmlns:sodipodi="http://sodipodi.sourceforge.net/DTD/sodipodi-0.dtd"
   xmlns="http://www.w3.org/2000/svg"
   xmlns:svg="http://www.w3.org/2000/svg">
  <defs
     id="defs8" />
  <sodipodi:namedview
     id="namedview6"
     pagecolor="#505050"
     bordercolor="#eeeeee"
     borderopacity="1"
     inkscape:pageshadow="0"
     inkscape:pageopacity="0"
     inkscape:pagecheckerboard="0"
     showgrid="false"
     inkscape:zoom="36.166667"
     inkscape:cx="8.4193548"
     inkscape:cy="13.617511"
     inkscape:window-width="1920"
     inkscape:window-height="1015"
     inkscape:window-x="0"
     inkscape:window-y="0"
     inkscape:window-maximized="1"
     inkscape:current-layer="svg4" />
  <path
     d="m 11.752939,3.0060052 c 1.4017,0.0752 2.7711,0.47783 4.0129,1.19478 4.3065,2.48636 5.782,7.9930998 3.2956,12.2994998 -2.4863,4.3065 -7.993,5.7821 -12.2995299,3.2957 -1.17277,-0.6771 -2.16005,-1.5931 -2.91201,-2.685 -0.25141,-0.3651 -0.08879,-0.8693 0.32856,-1.0187 3.39162,-1.2139 5.20818,-2.6206 6.2622799,-4.6327 1.1097,-2.1183298 1.3964,-4.4386798 0.6201,-7.6192698 -0.1073,-0.4398 0.2401,-0.85857 0.6921,-0.83431 z m 1.0111,1.63761 0.0648,0.38943 c 0.4173,2.70511 0.0651,4.9759398 -1.0594,7.1225398 -1.1419,2.1798 -3.0002999,3.704 -6.0158999,4.9397 0.50815,0.549 1.09885,1.0209 1.75837,1.4017 3.5890299,2.0721 8.1783299,0.8424 10.2505299,-2.7467 2.0721,-3.589 0.8424,-8.1783198 -2.7466,-10.2504598 -0.5054,-0.29175 -1.0368,-0.52172 -1.5855,-0.68777 l -0.3313,-0.09194 z"
     fill="#212121"
     id="path2"
     sodipodi:nodetypes="ccccccccccccccccccc" />
</svg>
